<svg width="459" height="93" viewBox="0 0 459 93" fill="none" xmlns="http://www.w3.org/2000/svg">
<path d="M87.543 7.10938C87.9727 7.10938 88.1875 7.32422 88.1875 7.75391V19.3555C88.1875 19.7852 87.9727 20 87.543 20C87.1133 20 86.8984 19.7852 86.8984 19.3555V9.87305L84.2715 13.8086C84.0957 14.069 83.8971 14.1992 83.6758 14.1992C83.4479 14.1992 83.2461 14.069 83.0703 13.8086L80.4531 9.87305V19.3555C80.4531 19.7852 80.2383 20 79.8086 20C79.3789 20 79.1641 19.7852 79.1641 19.3555V7.75391C79.1641 7.32422 79.3789 7.10938 79.8086 7.10938C80.043 7.10938 80.2318 7.2168 80.375 7.43164L83.6758 12.3828L86.9961 7.39258C87.1198 7.20378 87.3021 7.10938 87.543 7.10938ZM97.9219 17.4219C97.9219 18.1445 97.6712 18.7565 97.1699 19.2578C96.6751 19.7526 96.0664 20 95.3438 20H93.4102C92.9805 20 92.7656 19.7852 92.7656 19.3555V11.6211C92.7656 11.1914 92.9805 10.9766 93.4102 10.9766C93.8398 10.9766 94.0547 11.1914 94.0547 11.6211V14.8438H95.3438C96.0664 14.8438 96.6751 15.0944 97.1699 15.5957C97.6712 16.0905 97.9219 16.6992 97.9219 17.4219ZM96.6328 17.4219C96.6328 17.0573 96.5091 16.7513 96.2617 16.5039C96.0143 16.2565 95.7083 16.1328 95.3438 16.1328H94.0547V18.7109H95.3438C95.7018 18.7109 96.0046 18.5872 96.252 18.3398C96.5059 18.0859 96.6328 17.7799 96.6328 17.4219ZM99.2109 11.6211C99.2109 11.1914 99.4258 10.9766 99.8555 10.9766C100.285 10.9766 100.5 11.1914 100.5 11.6211V19.3555C100.5 19.7852 100.285 20 99.8555 20C99.4258 20 99.2109 19.7852 99.2109 19.3555V11.6211ZM116.102 11.6211C116.648 11.1914 117.15 10.9766 117.605 10.9766C117.872 10.9766 118.12 10.8268 118.348 10.5273C118.569 10.2474 118.68 9.96745 118.68 9.6875C118.68 9.32292 118.556 9.01693 118.309 8.76953C118.061 8.52214 117.755 8.39844 117.391 8.39844C117.033 8.39844 116.727 8.52539 116.473 8.7793C116.225 9.02669 116.102 9.32943 116.102 9.6875V11.6211ZM119.324 11.2402C119.917 11.4876 120.385 11.8815 120.73 12.4219C121.082 12.9622 121.258 13.5547 121.258 14.1992V16.7773C121.258 17.6758 120.942 18.4375 120.311 19.0625C119.686 19.6875 118.927 20 118.035 20C117.137 20 116.375 19.6875 115.75 19.0625C115.125 18.431 114.812 17.6693 114.812 16.7773V9.6875C114.812 8.96484 115.063 8.35612 115.564 7.86133C116.066 7.36003 116.674 7.10938 117.391 7.10938C118.113 7.10938 118.722 7.36003 119.217 7.86133C119.718 8.36263 119.969 8.97135 119.969 9.6875C119.969 10.3385 119.754 10.8561 119.324 11.2402ZM119.969 16.7773V14.1992C119.969 13.6654 119.78 13.2096 119.402 12.832C119.031 12.4544 118.576 12.2656 118.035 12.2656C117.495 12.2656 117.036 12.4544 116.658 12.832C116.287 13.2096 116.102 13.6654 116.102 14.1992V16.7773C116.102 17.3177 116.287 17.7767 116.658 18.1543C117.036 18.5254 117.495 18.7109 118.035 18.7109C118.576 18.7109 119.031 18.5221 119.402 18.1445C119.78 17.7669 119.969 17.3112 119.969 16.7773ZM127.125 13.5547V17.4219C127.125 17.7734 127.252 18.0762 127.506 18.3301C127.76 18.584 128.062 18.7109 128.414 18.7109H130.348C130.777 18.7109 130.992 18.9258 130.992 19.3555C130.992 19.7852 130.777 20 130.348 20H128.414C127.691 20 127.079 19.7526 126.578 19.2578C126.083 18.7565 125.836 18.1445 125.836 17.4219V13.5547C125.836 12.832 126.083 12.2233 126.578 11.7285C127.079 11.2272 127.691 10.9766 128.414 10.9766H130.348C130.777 10.9766 130.992 11.1914 130.992 11.6211C130.992 12.0508 130.777 12.2656 130.348 12.2656H128.414C128.056 12.2656 127.75 12.3926 127.496 12.6465C127.249 12.8939 127.125 13.1966 127.125 13.5547ZM138.793 12.2656C138.259 12.2656 137.803 12.4544 137.426 12.832C137.048 13.2096 136.859 13.6654 136.859 14.1992V14.8438H140.727V14.1992C140.727 13.6654 140.538 13.2096 140.16 12.832C139.783 12.4544 139.327 12.2656 138.793 12.2656ZM136.859 16.1328V17.4219C136.859 17.7734 136.986 18.0762 137.24 18.3301C137.494 18.584 137.797 18.7109 138.148 18.7109H141.371C141.801 18.7109 142.016 18.9258 142.016 19.3555C142.016 19.7852 141.801 20 141.371 20H138.148C137.426 20 136.814 19.7526 136.312 19.2578C135.818 18.7565 135.57 18.1445 135.57 17.4219V14.1992C135.57 13.3073 135.883 12.5488 136.508 11.9238C137.139 11.2923 137.901 10.9766 138.793 10.9766C139.698 10.9766 140.46 11.2891 141.078 11.9141C141.703 12.5326 142.016 13.2943 142.016 14.1992V16.1328H136.859ZM152.395 18.0664C152.824 18.0664 153.039 18.2812 153.039 18.7109C153.039 18.9583 152.919 19.1504 152.678 19.2871C151.851 19.7624 150.575 20 148.85 20C148.225 20 147.691 19.7819 147.248 19.3457C146.812 18.903 146.594 18.3691 146.594 17.7441C146.594 16.8001 147.023 16.1198 147.883 15.7031L151.223 14.0918C151.574 13.9225 151.75 13.6361 151.75 13.2324C151.75 12.9655 151.656 12.7376 151.467 12.5488C151.278 12.36 151.05 12.2656 150.783 12.2656C150.048 12.2656 149.504 12.3112 149.152 12.4023C148.859 12.474 148.537 12.6172 148.186 12.832C148.101 12.8841 148 12.9102 147.883 12.9102C147.714 12.9102 147.564 12.8451 147.434 12.7148C147.303 12.5846 147.238 12.4349 147.238 12.2656C147.238 12.0312 147.352 11.8424 147.58 11.6992C148.335 11.2174 149.403 10.9766 150.783 10.9766C151.408 10.9766 151.939 11.1979 152.375 11.6406C152.818 12.0768 153.039 12.6074 153.039 13.2324C153.039 14.1764 152.606 14.8568 151.74 15.2734L148.43 16.8652C148.065 17.041 147.883 17.334 147.883 17.7441C147.883 18.0111 147.977 18.2389 148.166 18.4277C148.355 18.6165 148.583 18.7109 148.85 18.7109C150.106 18.7109 151.206 18.5124 152.15 18.1152C152.229 18.0827 152.31 18.0664 152.395 18.0664ZM164.062 9.6875V17.4219C164.062 18.1445 163.812 18.7565 163.311 19.2578C162.809 19.7526 162.201 20 161.484 20H160.195C159.473 20 158.861 19.7493 158.359 19.248C157.865 18.7467 157.617 18.138 157.617 17.4219V13.5547C157.617 12.832 157.868 12.2233 158.369 11.7285C158.87 11.2272 159.479 10.9766 160.195 10.9766H162.773V9.6875C162.773 9.32292 162.65 9.01693 162.402 8.76953C162.155 8.52214 161.849 8.39844 161.484 8.39844H159.551C159.121 8.39844 158.906 8.18359 158.906 7.75391C158.906 7.32422 159.121 7.10938 159.551 7.10938H161.484C162.207 7.10938 162.816 7.36003 163.311 7.86133C163.812 8.36263 164.062 8.97135 164.062 9.6875ZM162.773 17.4219V12.2656H160.195C159.837 12.2656 159.531 12.3926 159.277 12.6465C159.03 12.8939 158.906 13.1966 158.906 13.5547V17.4219C158.906 17.7734 159.033 18.0762 159.287 18.3301C159.541 18.584 159.844 18.7109 160.195 18.7109H161.484C161.842 18.7109 162.145 18.5872 162.393 18.3398C162.646 18.0859 162.773 17.7799 162.773 17.4219ZM173.797 12.2656H171.219C170.861 12.2656 170.555 12.3926 170.301 12.6465C170.053 12.8939 169.93 13.1966 169.93 13.5547V17.4219C169.93 17.7734 170.057 18.0762 170.311 18.3301C170.564 18.584 170.867 18.7109 171.219 18.7109H172.508C172.866 18.7109 173.169 18.5872 173.416 18.3398C173.67 18.0859 173.797 17.7799 173.797 17.4219V12.2656ZM176.375 19.3555C176.375 19.7852 176.16 20 175.73 20C175.132 20 174.64 19.7721 174.256 19.3164C173.781 19.7721 173.198 20 172.508 20H171.219C170.496 20 169.884 19.7526 169.383 19.2578C168.888 18.7565 168.641 18.1445 168.641 17.4219V13.5547C168.641 12.832 168.888 12.2233 169.383 11.7285C169.884 11.2272 170.496 10.9766 171.219 10.9766H174.441C174.871 10.9766 175.086 11.1914 175.086 11.6211V18.0664C175.086 18.4961 175.301 18.7109 175.73 18.7109C176.16 18.7109 176.375 18.9258 176.375 19.3555ZM197.133 9.6875V17.4219C197.133 18.1445 196.882 18.7565 196.381 19.2578C195.88 19.7526 195.271 20 194.555 20H193.266C192.543 20 191.931 19.7493 191.43 19.248C190.935 18.7467 190.688 18.138 190.688 17.4219V13.5547C190.688 12.832 190.938 12.2233 191.439 11.7285C191.941 11.2272 192.549 10.9766 193.266 10.9766H195.844V9.6875C195.844 9.32292 195.72 9.01693 195.473 8.76953C195.225 8.52214 194.919 8.39844 194.555 8.39844H192.621C192.191 8.39844 191.977 8.18359 191.977 7.75391C191.977 7.32422 192.191 7.10938 192.621 7.10938H194.555C195.277 7.10938 195.886 7.36003 196.381 7.86133C196.882 8.36263 197.133 8.97135 197.133 9.6875ZM195.844 17.4219V12.2656H193.266C192.908 12.2656 192.602 12.3926 192.348 12.6465C192.1 12.8939 191.977 13.1966 191.977 13.5547V17.4219C191.977 17.7734 192.104 18.0762 192.357 18.3301C192.611 18.584 192.914 18.7109 193.266 18.7109H194.555C194.913 18.7109 195.215 18.5872 195.463 18.3398C195.717 18.0859 195.844 17.7799 195.844 17.4219ZM204.934 12.2656C204.4 12.2656 203.944 12.4544 203.566 12.832C203.189 13.2096 203 13.6654 203 14.1992V14.8438H206.867V14.1992C206.867 13.6654 206.678 13.2096 206.301 12.832C205.923 12.4544 205.467 12.2656 204.934 12.2656ZM203 16.1328V17.4219C203 17.7734 203.127 18.0762 203.381 18.3301C203.635 18.584 203.938 18.7109 204.289 18.7109H207.512C207.941 18.7109 208.156 18.9258 208.156 19.3555C208.156 19.7852 207.941 20 207.512 20H204.289C203.566 20 202.954 19.7526 202.453 19.2578C201.958 18.7565 201.711 18.1445 201.711 17.4219V14.1992C201.711 13.3073 202.023 12.5488 202.648 11.9238C203.28 11.2923 204.042 10.9766 204.934 10.9766C205.839 10.9766 206.6 11.2891 207.219 11.9141C207.844 12.5326 208.156 13.2943 208.156 14.1992V16.1328H203ZM212.734 11.6211C212.734 11.1914 212.949 10.9766 213.379 10.9766H216.602C217.324 10.9766 217.933 11.2272 218.428 11.7285C218.929 12.2233 219.18 12.832 219.18 13.5547V17.4219C219.18 18.138 218.929 18.7467 218.428 19.248C217.933 19.7493 217.324 20 216.602 20H214.023V23.2227C214.023 23.6523 213.809 23.8672 213.379 23.8672C212.949 23.8672 212.734 23.6523 212.734 23.2227V11.6211ZM214.023 12.2656V18.7109H216.602C216.96 18.7109 217.262 18.5872 217.51 18.3398C217.764 18.0859 217.891 17.7799 217.891 17.4219V13.5547C217.891 13.1901 217.767 12.8841 217.52 12.6367C217.272 12.3893 216.966 12.2656 216.602 12.2656H214.023ZM227.625 15.6934L224.939 19.7168C224.816 19.9056 224.637 20 224.402 20C224.227 20 224.074 19.9382 223.943 19.8145C223.82 19.6842 223.758 19.5312 223.758 19.3555C223.758 19.2188 223.794 19.0983 223.865 18.9941L226.219 15.4883L223.865 11.9824C223.794 11.8783 223.758 11.7578 223.758 11.6211C223.758 11.1914 223.973 10.9766 224.402 10.9766C224.637 10.9766 224.816 11.071 224.939 11.2598L227.625 15.2832V11.6211C227.625 11.1914 227.84 10.9766 228.27 10.9766C228.699 10.9766 228.914 11.1914 228.914 11.6211V15.2832L231.6 11.2598C231.723 11.071 231.902 10.9766 232.137 10.9766C232.566 10.9766 232.781 11.1914 232.781 11.6211C232.781 11.7578 232.745 11.8783 232.674 11.9824L230.32 15.4883L232.674 18.9941C232.745 19.0983 232.781 19.2188 232.781 19.3555C232.781 19.7852 232.566 20 232.137 20C231.902 20 231.723 19.9056 231.6 19.7168L228.914 15.6934V19.3555C228.914 19.7852 228.699 20 228.27 20C227.84 20 227.625 19.7852 227.625 19.3555V15.6934ZM243.805 11.6211V19.3555C243.805 19.7852 243.59 20 243.16 20H239.938C239.215 20 238.603 19.7526 238.102 19.2578C237.607 18.7565 237.359 18.1445 237.359 17.4219V11.6211C237.359 11.1914 237.574 10.9766 238.004 10.9766C238.434 10.9766 238.648 11.1914 238.648 11.6211V17.4219C238.648 17.7734 238.775 18.0762 239.029 18.3301C239.283 18.584 239.586 18.7109 239.938 18.7109H242.516V11.6211C242.516 11.1914 242.73 10.9766 243.16 10.9766C243.59 10.9766 243.805 11.1914 243.805 11.6211ZM252.25 16.7773L249.672 13.4766V19.3555C249.672 19.7852 249.457 20 249.027 20C248.598 20 248.383 19.7852 248.383 19.3555V11.6211C248.383 11.1914 248.598 10.9766 249.027 10.9766C249.242 10.9766 249.457 11.1133 249.672 11.3867L252.25 14.6875L254.828 11.3867C255.043 11.1133 255.258 10.9766 255.473 10.9766C255.902 10.9766 256.117 11.1914 256.117 11.6211V19.3555C256.117 19.7852 255.902 20 255.473 20C255.043 20 254.828 19.7852 254.828 19.3555V13.4766L252.25 16.7773ZM271.719 11.6211C272.266 11.1914 272.767 10.9766 273.223 10.9766C273.49 10.9766 273.737 10.8268 273.965 10.5273C274.186 10.2474 274.297 9.96745 274.297 9.6875C274.297 9.32292 274.173 9.01693 273.926 8.76953C273.678 8.52214 273.372 8.39844 273.008 8.39844C272.65 8.39844 272.344 8.52539 272.09 8.7793C271.842 9.02669 271.719 9.32943 271.719 9.6875V11.6211ZM274.941 11.2402C275.534 11.4876 276.003 11.8815 276.348 12.4219C276.699 12.9622 276.875 13.5547 276.875 14.1992V16.7773C276.875 17.6758 276.559 18.4375 275.928 19.0625C275.303 19.6875 274.544 20 273.652 20C272.754 20 271.992 19.6875 271.367 19.0625C270.742 18.431 270.43 17.6693 270.43 16.7773V9.6875C270.43 8.96484 270.68 8.35612 271.182 7.86133C271.683 7.36003 272.292 7.10938 273.008 7.10938C273.73 7.10938 274.339 7.36003 274.834 7.86133C275.335 8.36263 275.586 8.97135 275.586 9.6875C275.586 10.3385 275.371 10.8561 274.941 11.2402ZM275.586 16.7773V14.1992C275.586 13.6654 275.397 13.2096 275.02 12.832C274.648 12.4544 274.193 12.2656 273.652 12.2656C273.112 12.2656 272.653 12.4544 272.275 12.832C271.904 13.2096 271.719 13.6654 271.719 14.1992V16.7773C271.719 17.3177 271.904 17.7767 272.275 18.1543C272.653 18.5254 273.112 18.7109 273.652 18.7109C274.193 18.7109 274.648 18.5221 275.02 18.1445C275.397 17.7669 275.586 17.3112 275.586 16.7773ZM286.609 12.2656H284.031C283.673 12.2656 283.367 12.3926 283.113 12.6465C282.866 12.8939 282.742 13.1966 282.742 13.5547V17.4219C282.742 17.7734 282.869 18.0762 283.123 18.3301C283.377 18.584 283.68 18.7109 284.031 18.7109H285.32C285.678 18.7109 285.981 18.5872 286.229 18.3398C286.482 18.0859 286.609 17.7799 286.609 17.4219V12.2656ZM289.188 19.3555C289.188 19.7852 288.973 20 288.543 20C287.944 20 287.452 19.7721 287.068 19.3164C286.593 19.7721 286.01 20 285.32 20H284.031C283.309 20 282.697 19.7526 282.195 19.2578C281.701 18.7565 281.453 18.1445 281.453 17.4219V13.5547C281.453 12.832 281.701 12.2233 282.195 11.7285C282.697 11.2272 283.309 10.9766 284.031 10.9766H287.254C287.684 10.9766 287.898 11.1914 287.898 11.6211V18.0664C287.898 18.4961 288.113 18.7109 288.543 18.7109C288.973 18.7109 289.188 18.9258 289.188 19.3555ZM302.145 20H296.295C295.605 20 295.009 19.7526 294.508 19.2578C294.013 18.7565 293.766 18.1608 293.766 17.4707V11.6211C293.766 11.1914 293.98 10.9766 294.41 10.9766C294.84 10.9766 295.055 11.1914 295.055 11.6211V17.4219C295.055 17.7734 295.182 18.0762 295.436 18.3301C295.689 18.584 295.992 18.7109 296.344 18.7109H297.633V11.6211C297.633 11.1914 297.848 10.9766 298.277 10.9766C298.707 10.9766 298.922 11.1914 298.922 11.6211V18.7109H301.5V11.6211C301.5 11.1914 301.715 10.9766 302.145 10.9766C302.574 10.9766 302.789 11.1914 302.789 11.6211V19.3555C302.789 19.7852 302.574 20 302.145 20ZM313.812 11.6211V19.3555C313.812 19.7852 313.598 20 313.168 20H309.945C309.223 20 308.611 19.7526 308.109 19.2578C307.615 18.7565 307.367 18.1445 307.367 17.4219V11.6211C307.367 11.1914 307.582 10.9766 308.012 10.9766C308.441 10.9766 308.656 11.1914 308.656 11.6211V17.4219C308.656 17.7734 308.783 18.0762 309.037 18.3301C309.291 18.584 309.594 18.7109 309.945 18.7109H312.523V11.6211C312.523 11.1914 312.738 10.9766 313.168 10.9766C313.598 10.9766 313.812 11.1914 313.812 11.6211ZM328.125 19.3555V11.6211C328.125 11.1914 328.34 10.9766 328.77 10.9766H331.992C332.708 10.9766 333.317 11.2272 333.818 11.7285C334.32 12.2298 334.57 12.8385 334.57 13.5547V19.3555C334.57 19.7852 334.355 20 333.926 20C333.496 20 333.281 19.7852 333.281 19.3555V13.5547C333.281 13.1901 333.158 12.8841 332.91 12.6367C332.663 12.3893 332.357 12.2656 331.992 12.2656H329.414V19.3555C329.414 19.7852 329.199 20 328.77 20C328.34 20 328.125 19.7852 328.125 19.3555ZM339.148 16.7773V14.1992C339.148 13.3073 339.461 12.5488 340.086 11.9238C340.717 11.2923 341.479 10.9766 342.371 10.9766C343.276 10.9766 344.038 11.2891 344.656 11.9141C345.281 12.5326 345.594 13.2943 345.594 14.1992V16.7773C345.594 17.6693 345.278 18.431 344.646 19.0625C344.021 19.6875 343.263 20 342.371 20C341.479 20 340.717 19.6875 340.086 19.0625C339.461 18.431 339.148 17.6693 339.148 16.7773ZM344.305 16.7773V14.1992C344.305 13.6654 344.116 13.2096 343.738 12.832C343.361 12.4544 342.905 12.2656 342.371 12.2656C341.837 12.2656 341.382 12.4544 341.004 12.832C340.626 13.2096 340.438 13.6654 340.438 14.1992V16.7773C340.438 17.3177 340.623 17.7767 340.994 18.1543C341.372 18.5254 341.831 18.7109 342.371 18.7109C342.905 18.7109 343.361 18.5221 343.738 18.1445C344.116 17.7669 344.305 17.3112 344.305 16.7773ZM350.816 10.9766H356.617C357.333 10.9766 357.942 11.2272 358.443 11.7285C358.945 12.2298 359.195 12.8385 359.195 13.5547V19.3555C359.195 19.7852 358.98 20 358.551 20C358.121 20 357.906 19.7852 357.906 19.3555V13.5547C357.906 13.1901 357.783 12.8841 357.535 12.6367C357.288 12.3893 356.982 12.2656 356.617 12.2656H355.328V19.3555C355.328 19.7852 355.113 20 354.684 20C354.254 20 354.039 19.7852 354.039 19.3555V12.2656H351.461V19.3555C351.461 19.7852 351.246 20 350.816 20C350.387 20 350.172 19.7852 350.172 19.3555V11.6211C350.172 11.1914 350.387 10.9766 350.816 10.9766ZM363.773 11.6211C363.773 11.1914 363.988 10.9766 364.418 10.9766H367.641C368.363 10.9766 368.972 11.2272 369.467 11.7285C369.968 12.2233 370.219 12.832 370.219 13.5547V17.4219C370.219 18.138 369.968 18.7467 369.467 19.248C368.972 19.7493 368.363 20 367.641 20H365.062V23.2227C365.062 23.6523 364.848 23.8672 364.418 23.8672C363.988 23.8672 363.773 23.6523 363.773 23.2227V11.6211ZM365.062 12.2656V18.7109H367.641C367.999 18.7109 368.301 18.5872 368.549 18.3398C368.803 18.0859 368.93 17.7799 368.93 17.4219V13.5547C368.93 13.1901 368.806 12.8841 368.559 12.6367C368.311 12.3893 368.005 12.2656 367.641 12.2656H365.062ZM378.02 12.2656C377.486 12.2656 377.03 12.4544 376.652 12.832C376.275 13.2096 376.086 13.6654 376.086 14.1992V14.8438H379.953V14.1992C379.953 13.6654 379.764 13.2096 379.387 12.832C379.009 12.4544 378.553 12.2656 378.02 12.2656ZM376.086 16.1328V17.4219C376.086 17.7734 376.213 18.0762 376.467 18.3301C376.721 18.584 377.023 18.7109 377.375 18.7109H380.598C381.027 18.7109 381.242 18.9258 381.242 19.3555C381.242 19.7852 381.027 20 380.598 20H377.375C376.652 20 376.04 19.7526 375.539 19.2578C375.044 18.7565 374.797 18.1445 374.797 17.4219V14.1992C374.797 13.3073 375.109 12.5488 375.734 11.9238C376.366 11.2923 377.128 10.9766 378.02 10.9766C378.924 10.9766 379.686 11.2891 380.305 11.9141C380.93 12.5326 381.242 13.2943 381.242 14.1992V16.1328H376.086ZM392.266 14.1992V16.7773C392.266 17.6693 391.95 18.431 391.318 19.0625C390.693 19.6875 389.935 20 389.043 20C388.151 20 387.389 19.6875 386.758 19.0625C386.133 18.431 385.82 17.6693 385.82 16.7773V14.1992C385.82 12.9036 386.377 11.9531 387.49 11.3477C387.952 11.1003 388.382 10.9766 388.779 10.9766L385.947 8.14453C385.863 8.0599 385.82 7.93294 385.82 7.76367C385.82 7.32747 386.035 7.10938 386.465 7.10938H391.631C392.061 7.10938 392.275 7.32422 392.275 7.75391C392.275 8.18359 392.061 8.39844 391.631 8.39844H387.969L391.211 11.8066C391.914 12.5488 392.266 13.3464 392.266 14.1992ZM390.977 16.7773V14.1992C390.977 13.6654 390.788 13.2096 390.41 12.832C390.033 12.4544 389.577 12.2656 389.043 12.2656C388.509 12.2656 388.053 12.4544 387.676 12.832C387.298 13.2096 387.109 13.6654 387.109 14.1992V16.7773C387.109 17.3177 387.295 17.7767 387.666 18.1543C388.044 18.5254 388.503 18.7109 389.043 18.7109C389.577 18.7109 390.033 18.5221 390.41 18.1445C390.788 17.7669 390.977 17.3112 390.977 16.7773ZM398.133 16.1328V19.3555C398.133 19.7852 397.918 20 397.488 20C397.059 20 396.844 19.7852 396.844 19.3555V11.6211C396.844 11.1914 397.059 10.9766 397.488 10.9766C397.918 10.9766 398.133 11.1914 398.133 11.6211V14.8438H402V11.6211C402 11.1914 402.215 10.9766 402.645 10.9766C403.074 10.9766 403.289 11.1914 403.289 11.6211V19.3555C403.289 19.7852 403.074 20 402.645 20C402.215 20 402 19.7852 402 19.3555V16.1328H398.133ZM407.867 16.7773V14.1992C407.867 13.3073 408.18 12.5488 408.805 11.9238C409.436 11.2923 410.198 10.9766 411.09 10.9766C411.995 10.9766 412.757 11.2891 413.375 11.9141C414 12.5326 414.312 13.2943 414.312 14.1992V16.7773C414.312 17.6693 413.997 18.431 413.365 19.0625C412.74 19.6875 411.982 20 411.09 20C410.198 20 409.436 19.6875 408.805 19.0625C408.18 18.431 407.867 17.6693 407.867 16.7773ZM413.023 16.7773V14.1992C413.023 13.6654 412.835 13.2096 412.457 12.832C412.079 12.4544 411.624 12.2656 411.09 12.2656C410.556 12.2656 410.1 12.4544 409.723 12.832C409.345 13.2096 409.156 13.6654 409.156 14.1992V16.7773C409.156 17.3177 409.342 17.7767 409.713 18.1543C410.09 18.5254 410.549 18.7109 411.09 18.7109C411.624 18.7109 412.079 18.5221 412.457 18.1445C412.835 17.7669 413.023 17.3112 413.023 16.7773ZM420.18 13.5547V17.4219C420.18 17.7734 420.307 18.0762 420.561 18.3301C420.814 18.584 421.117 18.7109 421.469 18.7109H423.402C423.832 18.7109 424.047 18.9258 424.047 19.3555C424.047 19.7852 423.832 20 423.402 20H421.469C420.746 20 420.134 19.7526 419.633 19.2578C419.138 18.7565 418.891 18.1445 418.891 17.4219V13.5547C418.891 12.832 419.138 12.2233 419.633 11.7285C420.134 11.2272 420.746 10.9766 421.469 10.9766H423.402C423.832 10.9766 424.047 11.1914 424.047 11.6211C424.047 12.0508 423.832 12.2656 423.402 12.2656H421.469C421.111 12.2656 420.805 12.3926 420.551 12.6465C420.303 12.8939 420.18 13.1966 420.18 13.5547ZM429.27 10.9766H435.07C435.786 10.9766 436.395 11.2272 436.896 11.7285C437.398 12.2298 437.648 12.8385 437.648 13.5547V19.3555C437.648 19.7852 437.434 20 437.004 20C436.574 20 436.359 19.7852 436.359 19.3555V13.5547C436.359 13.1901 436.236 12.8841 435.988 12.6367C435.741 12.3893 435.435 12.2656 435.07 12.2656H433.781V19.3555C433.781 19.7852 433.566 20 433.137 20C432.707 20 432.492 19.7852 432.492 19.3555V12.2656H429.914V19.3555C429.914 19.7852 429.699 20 429.27 20C428.84 20 428.625 19.7852 428.625 19.3555V11.6211C428.625 11.1914 428.84 10.9766 429.27 10.9766ZM448.672 11.6211V19.3555C448.672 19.7852 448.457 20 448.027 20H444.805C444.082 20 443.47 19.7526 442.969 19.2578C442.474 18.7565 442.227 18.1445 442.227 17.4219V11.6211C442.227 11.1914 442.441 10.9766 442.871 10.9766C443.301 10.9766 443.516 11.1914 443.516 11.6211V17.4219C443.516 17.7734 443.643 18.0762 443.896 18.3301C444.15 18.584 444.453 18.7109 444.805 18.7109H447.383V11.6211C447.383 11.1914 447.598 10.9766 448.027 10.9766C448.457 10.9766 448.672 11.1914 448.672 11.6211ZM2.57812 47.1328V50.3555C2.57812 50.7852 2.36328 51 1.93359 51C1.50391 51 1.28906 50.7852 1.28906 50.3555V42.6211C1.28906 42.1914 1.50391 41.9766 1.93359 41.9766C2.36328 41.9766 2.57812 42.1914 2.57812 42.6211V45.8438H6.44531V42.6211C6.44531 42.1914 6.66016 41.9766 7.08984 41.9766C7.51953 41.9766 7.73438 42.1914 7.73438 42.6211V50.3555C7.73438 50.7852 7.51953 51 7.08984 51C6.66016 51 6.44531 50.7852 6.44531 50.3555V47.1328H2.57812ZM17.4688 43.2656H14.8906C14.5326 43.2656 14.2266 43.3926 13.9727 43.6465C13.7253 43.8939 13.6016 44.1966 13.6016 44.5547V48.4219C13.6016 48.7734 13.7285 49.0762 13.9824 49.3301C14.2363 49.584 14.5391 49.7109 14.8906 49.7109H16.1797C16.5378 49.7109 16.8405 49.5872 17.0879 49.3398C17.3418 49.0859 17.4688 48.7799 17.4688 48.4219V43.2656ZM20.0469 50.3555C20.0469 50.7852 19.832 51 19.4023 51C18.8034 51 18.3118 50.7721 17.9277 50.3164C17.4525 50.7721 16.8698 51 16.1797 51H14.8906C14.168 51 13.556 50.7526 13.0547 50.2578C12.5599 49.7565 12.3125 49.1445 12.3125 48.4219V44.5547C12.3125 43.832 12.5599 43.2233 13.0547 42.7285C13.556 42.2272 14.168 41.9766 14.8906 41.9766H18.1133C18.543 41.9766 18.7578 42.1914 18.7578 42.6211V49.0664C18.7578 49.4961 18.9727 49.7109 19.4023 49.7109C19.832 49.7109 20.0469 49.9258 20.0469 50.3555ZM34.3594 50.3555V42.6211C34.3594 42.1914 34.5742 41.9766 35.0039 41.9766H38.2266C38.9427 41.9766 39.5514 42.2272 40.0527 42.7285C40.554 43.2298 40.8047 43.8385 40.8047 44.5547V50.3555C40.8047 50.7852 40.5898 51 40.1602 51C39.7305 51 39.5156 50.7852 39.5156 50.3555V44.5547C39.5156 44.1901 39.3919 43.8841 39.1445 43.6367C38.8971 43.3893 38.5911 43.2656 38.2266 43.2656H35.6484V50.3555C35.6484 50.7852 35.4336 51 35.0039 51C34.5742 51 34.3594 50.7852 34.3594 50.3555ZM48.6055 43.2656C48.0716 43.2656 47.6159 43.4544 47.2383 43.832C46.8607 44.2096 46.6719 44.6654 46.6719 45.1992V45.8438H50.5391V45.1992C50.5391 44.6654 50.3503 44.2096 49.9727 43.832C49.5951 43.4544 49.1393 43.2656 48.6055 43.2656ZM46.6719 47.1328V48.4219C46.6719 48.7734 46.7988 49.0762 47.0527 49.3301C47.3066 49.584 47.6094 49.7109 47.9609 49.7109H51.1836C51.6133 49.7109 51.8281 49.9258 51.8281 50.3555C51.8281 50.7852 51.6133 51 51.1836 51H47.9609C47.2383 51 46.6263 50.7526 46.125 50.2578C45.6302 49.7565 45.3828 49.1445 45.3828 48.4219V45.1992C45.3828 44.3073 45.6953 43.5488 46.3203 42.9238C46.9518 42.2923 47.7135 41.9766 48.6055 41.9766C49.5104 41.9766 50.2721 42.2891 50.8906 42.9141C51.5156 43.5326 51.8281 44.2943 51.8281 45.1992V47.1328H46.6719ZM56.4062 42.6211C56.4062 42.1914 56.6211 41.9766 57.0508 41.9766H60.2734C60.9961 41.9766 61.6048 42.2272 62.0996 42.7285C62.6009 43.2233 62.8516 43.832 62.8516 44.5547V48.4219C62.8516 49.138 62.6009 49.7467 62.0996 50.248C61.6048 50.7493 60.9961 51 60.2734 51H57.6953V54.2227C57.6953 54.6523 57.4805 54.8672 57.0508 54.8672C56.6211 54.8672 56.4062 54.6523 56.4062 54.2227V42.6211ZM57.6953 43.2656V49.7109H60.2734C60.6315 49.7109 60.9342 49.5872 61.1816 49.3398C61.4355 49.0859 61.5625 48.7799 61.5625 48.4219V44.5547C61.5625 44.1901 61.4388 43.8841 61.1914 43.6367C60.944 43.3893 60.638 43.2656 60.2734 43.2656H57.6953ZM70.6523 43.2656C70.1185 43.2656 69.6628 43.4544 69.2852 43.832C68.9076 44.2096 68.7188 44.6654 68.7188 45.1992V45.8438H72.5859V45.1992C72.5859 44.6654 72.3971 44.2096 72.0195 43.832C71.6419 43.4544 71.1862 43.2656 70.6523 43.2656ZM68.7188 47.1328V48.4219C68.7188 48.7734 68.8457 49.0762 69.0996 49.3301C69.3535 49.584 69.6562 49.7109 70.0078 49.7109H73.2305C73.6602 49.7109 73.875 49.9258 73.875 50.3555C73.875 50.7852 73.6602 51 73.2305 51H70.0078C69.2852 51 68.6732 50.7526 68.1719 50.2578C67.6771 49.7565 67.4297 49.1445 67.4297 48.4219V45.1992C67.4297 44.3073 67.7422 43.5488 68.3672 42.9238C68.9987 42.2923 69.7604 41.9766 70.6523 41.9766C71.5573 41.9766 72.319 42.2891 72.9375 42.9141C73.5625 43.5326 73.875 44.2943 73.875 45.1992V47.1328H68.7188ZM84.8984 40.6875V48.4219C84.8984 49.1445 84.6478 49.7565 84.1465 50.2578C83.6452 50.7526 83.0365 51 82.3203 51H81.0312C80.3086 51 79.6966 50.7493 79.1953 50.248C78.7005 49.7467 78.4531 49.138 78.4531 48.4219V44.5547C78.4531 43.832 78.7038 43.2233 79.2051 42.7285C79.7064 42.2272 80.3151 41.9766 81.0312 41.9766H83.6094V40.6875C83.6094 40.3229 83.4857 40.0169 83.2383 39.7695C82.9909 39.5221 82.6849 39.3984 82.3203 39.3984H80.3867C79.957 39.3984 79.7422 39.1836 79.7422 38.7539C79.7422 38.3242 79.957 38.1094 80.3867 38.1094H82.3203C83.043 38.1094 83.6517 38.36 84.1465 38.8613C84.6478 39.3626 84.8984 39.9714 84.8984 40.6875ZM83.6094 48.4219V43.2656H81.0312C80.6732 43.2656 80.3672 43.3926 80.1133 43.6465C79.8659 43.8939 79.7422 44.1966 79.7422 44.5547V48.4219C79.7422 48.7734 79.8691 49.0762 80.123 49.3301C80.377 49.584 80.6797 49.7109 81.0312 49.7109H82.3203C82.6784 49.7109 82.9811 49.5872 83.2285 49.3398C83.4824 49.0859 83.6094 48.7799 83.6094 48.4219ZM90.7656 47.1328V50.3555C90.7656 50.7852 90.5508 51 90.1211 51C89.6914 51 89.4766 50.7852 89.4766 50.3555V42.6211C89.4766 42.1914 89.6914 41.9766 90.1211 41.9766C90.5508 41.9766 90.7656 42.1914 90.7656 42.6211V45.8438H94.6328V42.6211C94.6328 42.1914 94.8477 41.9766 95.2773 41.9766C95.707 41.9766 95.9219 42.1914 95.9219 42.6211V50.3555C95.9219 50.7852 95.707 51 95.2773 51C94.8477 51 94.6328 50.7852 94.6328 50.3555V47.1328H90.7656ZM103.723 43.2656C103.189 43.2656 102.733 43.4544 102.355 43.832C101.978 44.2096 101.789 44.6654 101.789 45.1992V45.8438H105.656V45.1992C105.656 44.6654 105.467 44.2096 105.09 43.832C104.712 43.4544 104.257 43.2656 103.723 43.2656ZM101.789 47.1328V48.4219C101.789 48.7734 101.916 49.0762 102.17 49.3301C102.424 49.584 102.727 49.7109 103.078 49.7109H106.301C106.73 49.7109 106.945 49.9258 106.945 50.3555C106.945 50.7852 106.73 51 106.301 51H103.078C102.355 51 101.743 50.7526 101.242 50.2578C100.747 49.7565 100.5 49.1445 100.5 48.4219V45.1992C100.5 44.3073 100.812 43.5488 101.438 42.9238C102.069 42.2923 102.831 41.9766 103.723 41.9766C104.628 41.9766 105.389 42.2891 106.008 42.9141C106.633 43.5326 106.945 44.2943 106.945 45.1992V47.1328H101.789ZM115.391 47.7773L112.812 44.4766V50.3555C112.812 50.7852 112.598 51 112.168 51C111.738 51 111.523 50.7852 111.523 50.3555V42.6211C111.523 42.1914 111.738 41.9766 112.168 41.9766C112.383 41.9766 112.598 42.1133 112.812 42.3867L115.391 45.6875L117.969 42.3867C118.184 42.1133 118.398 41.9766 118.613 41.9766C119.043 41.9766 119.258 42.1914 119.258 42.6211V50.3555C119.258 50.7852 119.043 51 118.613 51C118.184 51 117.969 50.7852 117.969 50.3555V44.4766L115.391 47.7773ZM133.57 50.3555V42.6211C133.57 42.1914 133.785 41.9766 134.215 41.9766H137.438C138.154 41.9766 138.762 42.2272 139.264 42.7285C139.765 43.2298 140.016 43.8385 140.016 44.5547V50.3555C140.016 50.7852 139.801 51 139.371 51C138.941 51 138.727 50.7852 138.727 50.3555V44.5547C138.727 44.1901 138.603 43.8841 138.355 43.6367C138.108 43.3893 137.802 43.2656 137.438 43.2656H134.859V50.3555C134.859 50.7852 134.645 51 134.215 51C133.785 51 133.57 50.7852 133.57 50.3555ZM147.816 41.9766H150.395C150.824 41.9766 151.039 42.1914 151.039 42.6211V50.3555C151.039 50.7852 150.824 51 150.395 51C149.965 51 149.75 50.7852 149.75 50.3555V43.2656H148.275L145.844 50.5605C145.746 50.8535 145.544 51 145.238 51C144.809 51 144.594 50.7819 144.594 50.3457C144.594 50.2741 144.604 50.209 144.623 50.1504L147.172 42.5039C147.289 42.1523 147.504 41.9766 147.816 41.9766ZM160.773 43.2656H158.195C157.837 43.2656 157.531 43.3926 157.277 43.6465C157.03 43.8939 156.906 44.1966 156.906 44.5547V48.4219C156.906 48.7734 157.033 49.0762 157.287 49.3301C157.541 49.584 157.844 49.7109 158.195 49.7109H159.484C159.842 49.7109 160.145 49.5872 160.393 49.3398C160.646 49.0859 160.773 48.7799 160.773 48.4219V43.2656ZM163.352 50.3555C163.352 50.7852 163.137 51 162.707 51C162.108 51 161.617 50.7721 161.232 50.3164C160.757 50.7721 160.174 51 159.484 51H158.195C157.473 51 156.861 50.7526 156.359 50.2578C155.865 49.7565 155.617 49.1445 155.617 48.4219V44.5547C155.617 43.832 155.865 43.2233 156.359 42.7285C156.861 42.2272 157.473 41.9766 158.195 41.9766H161.418C161.848 41.9766 162.062 42.1914 162.062 42.6211V49.0664C162.062 49.4961 162.277 49.7109 162.707 49.7109C163.137 49.7109 163.352 49.9258 163.352 50.3555ZM169.219 47.1328V50.3555C169.219 50.7852 169.004 51 168.574 51C168.145 51 167.93 50.7852 167.93 50.3555V42.6211C167.93 42.1914 168.145 41.9766 168.574 41.9766C169.004 41.9766 169.219 42.1914 169.219 42.6211V45.8438H173.086V42.6211C173.086 42.1914 173.301 41.9766 173.73 41.9766C174.16 41.9766 174.375 42.1914 174.375 42.6211V50.3555C174.375 50.7852 174.16 51 173.73 51C173.301 51 173.086 50.7852 173.086 50.3555V47.1328H169.219ZM182.176 43.2656C181.642 43.2656 181.186 43.4544 180.809 43.832C180.431 44.2096 180.242 44.6654 180.242 45.1992V45.8438H184.109V45.1992C184.109 44.6654 183.921 44.2096 183.543 43.832C183.165 43.4544 182.71 43.2656 182.176 43.2656ZM180.242 47.1328V48.4219C180.242 48.7734 180.369 49.0762 180.623 49.3301C180.877 49.584 181.18 49.7109 181.531 49.7109H184.754C185.184 49.7109 185.398 49.9258 185.398 50.3555C185.398 50.7852 185.184 51 184.754 51H181.531C180.809 51 180.197 50.7526 179.695 50.2578C179.201 49.7565 178.953 49.1445 178.953 48.4219V45.1992C178.953 44.3073 179.266 43.5488 179.891 42.9238C180.522 42.2923 181.284 41.9766 182.176 41.9766C183.081 41.9766 183.842 42.2891 184.461 42.9141C185.086 43.5326 185.398 44.2943 185.398 45.1992V47.1328H180.242ZM206.156 42.6211V50.3555C206.156 50.7852 205.941 51 205.512 51H202.289C201.566 51 200.954 50.7526 200.453 50.2578C199.958 49.7565 199.711 49.1445 199.711 48.4219V42.6211C199.711 42.1914 199.926 41.9766 200.355 41.9766C200.785 41.9766 201 42.1914 201 42.6211V48.4219C201 48.7734 201.127 49.0762 201.381 49.3301C201.635 49.584 201.938 49.7109 202.289 49.7109H204.867V42.6211C204.867 42.1914 205.082 41.9766 205.512 41.9766C205.941 41.9766 206.156 42.1914 206.156 42.6211ZM220.469 42.6211C220.469 42.1914 220.684 41.9766 221.113 41.9766H224.336C225.059 41.9766 225.667 42.2272 226.162 42.7285C226.663 43.2233 226.914 43.832 226.914 44.5547V48.4219C226.914 49.138 226.663 49.7467 226.162 50.248C225.667 50.7493 225.059 51 224.336 51H221.758V54.2227C221.758 54.6523 221.543 54.8672 221.113 54.8672C220.684 54.8672 220.469 54.6523 220.469 54.2227V42.6211ZM221.758 43.2656V49.7109H224.336C224.694 49.7109 224.997 49.5872 225.244 49.3398C225.498 49.0859 225.625 48.7799 225.625 48.4219V44.5547C225.625 44.1901 225.501 43.8841 225.254 43.6367C225.007 43.3893 224.701 43.2656 224.336 43.2656H221.758ZM236.648 43.2656H234.07C233.712 43.2656 233.406 43.3926 233.152 43.6465C232.905 43.8939 232.781 44.1966 232.781 44.5547V48.4219C232.781 48.7734 232.908 49.0762 233.162 49.3301C233.416 49.584 233.719 49.7109 234.07 49.7109H235.359C235.717 49.7109 236.02 49.5872 236.268 49.3398C236.521 49.0859 236.648 48.7799 236.648 48.4219V43.2656ZM239.227 50.3555C239.227 50.7852 239.012 51 238.582 51C237.983 51 237.492 50.7721 237.107 50.3164C236.632 50.7721 236.049 51 235.359 51H234.07C233.348 51 232.736 50.7526 232.234 50.2578C231.74 49.7565 231.492 49.1445 231.492 48.4219V44.5547C231.492 43.832 231.74 43.2233 232.234 42.7285C232.736 42.2272 233.348 41.9766 234.07 41.9766H237.293C237.723 41.9766 237.938 42.1914 237.938 42.6211V49.0664C237.938 49.4961 238.152 49.7109 238.582 49.7109C239.012 49.7109 239.227 49.9258 239.227 50.3555ZM250.25 45.1992V47.7773C250.25 48.6693 249.934 49.431 249.303 50.0625C248.678 50.6875 247.919 51 247.027 51C246.135 51 245.374 50.6875 244.742 50.0625C244.117 49.431 243.805 48.6693 243.805 47.7773V45.1992C243.805 43.9036 244.361 42.9531 245.475 42.3477C245.937 42.1003 246.367 41.9766 246.764 41.9766L243.932 39.1445C243.847 39.0599 243.805 38.9329 243.805 38.7637C243.805 38.3275 244.02 38.1094 244.449 38.1094H249.615C250.045 38.1094 250.26 38.3242 250.26 38.7539C250.26 39.1836 250.045 39.3984 249.615 39.3984H245.953L249.195 42.8066C249.898 43.5488 250.25 44.3464 250.25 45.1992ZM248.961 47.7773V45.1992C248.961 44.6654 248.772 44.2096 248.395 43.832C248.017 43.4544 247.561 43.2656 247.027 43.2656C246.493 43.2656 246.038 43.4544 245.66 43.832C245.283 44.2096 245.094 44.6654 245.094 45.1992V47.7773C245.094 48.3177 245.279 48.7767 245.65 49.1543C246.028 49.5254 246.487 49.7109 247.027 49.7109C247.561 49.7109 248.017 49.5221 248.395 49.1445C248.772 48.7669 248.961 48.3112 248.961 47.7773ZM254.828 47.7773V45.1992C254.828 44.3073 255.141 43.5488 255.766 42.9238C256.397 42.2923 257.159 41.9766 258.051 41.9766C258.956 41.9766 259.717 42.2891 260.336 42.9141C260.961 43.5326 261.273 44.2943 261.273 45.1992V47.7773C261.273 48.6693 260.958 49.431 260.326 50.0625C259.701 50.6875 258.943 51 258.051 51C257.159 51 256.397 50.6875 255.766 50.0625C255.141 49.431 254.828 48.6693 254.828 47.7773ZM259.984 47.7773V45.1992C259.984 44.6654 259.796 44.2096 259.418 43.832C259.04 43.4544 258.585 43.2656 258.051 43.2656C257.517 43.2656 257.061 43.4544 256.684 43.832C256.306 44.2096 256.117 44.6654 256.117 45.1992V47.7773C256.117 48.3177 256.303 48.7767 256.674 49.1543C257.051 49.5254 257.51 49.7109 258.051 49.7109C258.585 49.7109 259.04 49.5221 259.418 49.1445C259.796 48.7669 259.984 48.3112 259.984 47.7773ZM266.496 41.9766H272.297C273.013 41.9766 273.622 42.2272 274.123 42.7285C274.624 43.2298 274.875 43.8385 274.875 44.5547V50.3555C274.875 50.7852 274.66 51 274.23 51C273.801 51 273.586 50.7852 273.586 50.3555V44.5547C273.586 44.1901 273.462 43.8841 273.215 43.6367C272.967 43.3893 272.661 43.2656 272.297 43.2656H271.008V50.3555C271.008 50.7852 270.793 51 270.363 51C269.934 51 269.719 50.7852 269.719 50.3555V43.2656H267.141V50.3555C267.141 50.7852 266.926 51 266.496 51C266.066 51 265.852 50.7852 265.852 50.3555V42.6211C265.852 42.1914 266.066 41.9766 266.496 41.9766ZM284.609 43.2656H282.031C281.673 43.2656 281.367 43.3926 281.113 43.6465C280.866 43.8939 280.742 44.1966 280.742 44.5547V48.4219C280.742 48.7734 280.869 49.0762 281.123 49.3301C281.377 49.584 281.68 49.7109 282.031 49.7109H283.32C283.678 49.7109 283.981 49.5872 284.229 49.3398C284.482 49.0859 284.609 48.7799 284.609 48.4219V43.2656ZM287.188 50.3555C287.188 50.7852 286.973 51 286.543 51C285.944 51 285.452 50.7721 285.068 50.3164C284.593 50.7721 284.01 51 283.32 51H282.031C281.309 51 280.697 50.7526 280.195 50.2578C279.701 49.7565 279.453 49.1445 279.453 48.4219V44.5547C279.453 43.832 279.701 43.2233 280.195 42.7285C280.697 42.2272 281.309 41.9766 282.031 41.9766H285.254C285.684 41.9766 285.898 42.1914 285.898 42.6211V49.0664C285.898 49.4961 286.113 49.7109 286.543 49.7109C286.973 49.7109 287.188 49.9258 287.188 50.3555ZM294.988 43.2656C294.454 43.2656 293.999 43.4544 293.621 43.832C293.243 44.2096 293.055 44.6654 293.055 45.1992V45.8438H296.922V45.1992C296.922 44.6654 296.733 44.2096 296.355 43.832C295.978 43.4544 295.522 43.2656 294.988 43.2656ZM293.055 47.1328V48.4219C293.055 48.7734 293.182 49.0762 293.436 49.3301C293.689 49.584 293.992 49.7109 294.344 49.7109H297.566C297.996 49.7109 298.211 49.9258 298.211 50.3555C298.211 50.7852 297.996 51 297.566 51H294.344C293.621 51 293.009 50.7526 292.508 50.2578C292.013 49.7565 291.766 49.1445 291.766 48.4219V45.1992C291.766 44.3073 292.078 43.5488 292.703 42.9238C293.335 42.2923 294.096 41.9766 294.988 41.9766C295.893 41.9766 296.655 42.2891 297.273 42.9141C297.898 43.5326 298.211 44.2943 298.211 45.1992V47.1328H293.055ZM306.656 47.7773L304.078 44.4766V50.3555C304.078 50.7852 303.863 51 303.434 51C303.004 51 302.789 50.7852 302.789 50.3555V42.6211C302.789 42.1914 303.004 41.9766 303.434 41.9766C303.648 41.9766 303.863 42.1133 304.078 42.3867L306.656 45.6875L309.234 42.3867C309.449 42.1133 309.664 41.9766 309.879 41.9766C310.309 41.9766 310.523 42.1914 310.523 42.6211V50.3555C310.523 50.7852 310.309 51 309.879 51C309.449 51 309.234 50.7852 309.234 50.3555V44.4766L306.656 47.7773ZM326.125 44.5547V48.4219C326.125 48.7734 326.252 49.0762 326.506 49.3301C326.76 49.584 327.062 49.7109 327.414 49.7109H329.348C329.777 49.7109 329.992 49.9258 329.992 50.3555C329.992 50.7852 329.777 51 329.348 51H327.414C326.691 51 326.079 50.7526 325.578 50.2578C325.083 49.7565 324.836 49.1445 324.836 48.4219V44.5547C324.836 43.832 325.083 43.2233 325.578 42.7285C326.079 42.2272 326.691 41.9766 327.414 41.9766H329.348C329.777 41.9766 329.992 42.1914 329.992 42.6211C329.992 43.0508 329.777 43.2656 329.348 43.2656H327.414C327.056 43.2656 326.75 43.3926 326.496 43.6465C326.249 43.8939 326.125 44.1966 326.125 44.5547ZM345.594 42.6211C346.141 42.1914 346.642 41.9766 347.098 41.9766C347.365 41.9766 347.612 41.8268 347.84 41.5273C348.061 41.2474 348.172 40.9674 348.172 40.6875C348.172 40.3229 348.048 40.0169 347.801 39.7695C347.553 39.5221 347.247 39.3984 346.883 39.3984C346.525 39.3984 346.219 39.5254 345.965 39.7793C345.717 40.0267 345.594 40.3294 345.594 40.6875V42.6211ZM348.816 42.2402C349.409 42.4876 349.878 42.8815 350.223 43.4219C350.574 43.9622 350.75 44.5547 350.75 45.1992V47.7773C350.75 48.6758 350.434 49.4375 349.803 50.0625C349.178 50.6875 348.419 51 347.527 51C346.629 51 345.867 50.6875 345.242 50.0625C344.617 49.431 344.305 48.6693 344.305 47.7773V40.6875C344.305 39.9648 344.555 39.3561 345.057 38.8613C345.558 38.36 346.167 38.1094 346.883 38.1094C347.605 38.1094 348.214 38.36 348.709 38.8613C349.21 39.3626 349.461 39.9714 349.461 40.6875C349.461 41.3385 349.246 41.8561 348.816 42.2402ZM349.461 47.7773V45.1992C349.461 44.6654 349.272 44.2096 348.895 43.832C348.523 43.4544 348.068 43.2656 347.527 43.2656C346.987 43.2656 346.528 43.4544 346.15 43.832C345.779 44.2096 345.594 44.6654 345.594 45.1992V47.7773C345.594 48.3177 345.779 48.7767 346.15 49.1543C346.528 49.5254 346.987 49.7109 347.527 49.7109C348.068 49.7109 348.523 49.5221 348.895 49.1445C349.272 48.7669 349.461 48.3112 349.461 47.7773ZM360.484 43.2656H357.906C357.548 43.2656 357.242 43.3926 356.988 43.6465C356.741 43.8939 356.617 44.1966 356.617 44.5547V48.4219C356.617 48.7734 356.744 49.0762 356.998 49.3301C357.252 49.584 357.555 49.7109 357.906 49.7109H359.195C359.553 49.7109 359.856 49.5872 360.104 49.3398C360.357 49.0859 360.484 48.7799 360.484 48.4219V43.2656ZM363.062 50.3555C363.062 50.7852 362.848 51 362.418 51C361.819 51 361.327 50.7721 360.943 50.3164C360.468 50.7721 359.885 51 359.195 51H357.906C357.184 51 356.572 50.7526 356.07 50.2578C355.576 49.7565 355.328 49.1445 355.328 48.4219V44.5547C355.328 43.832 355.576 43.2233 356.07 42.7285C356.572 42.2272 357.184 41.9766 357.906 41.9766H361.129C361.559 41.9766 361.773 42.1914 361.773 42.6211V49.0664C361.773 49.4961 361.988 49.7109 362.418 49.7109C362.848 49.7109 363.062 49.9258 363.062 50.3555ZM371.508 47.7773L368.93 44.4766V50.3555C368.93 50.7852 368.715 51 368.285 51C367.855 51 367.641 50.7852 367.641 50.3555V42.6211C367.641 42.1914 367.855 41.9766 368.285 41.9766C368.5 41.9766 368.715 42.1133 368.93 42.3867L371.508 45.6875L374.086 42.3867C374.301 42.1133 374.516 41.9766 374.73 41.9766C375.16 41.9766 375.375 42.1914 375.375 42.6211V50.3555C375.375 50.7852 375.16 51 374.73 51C374.301 51 374.086 50.7852 374.086 50.3555V44.4766L371.508 47.7773ZM386.398 42.6211V50.3555C386.398 50.7852 386.184 51 385.754 51H382.531C381.809 51 381.197 50.7526 380.695 50.2578C380.201 49.7565 379.953 49.1445 379.953 48.4219V42.6211C379.953 42.1914 380.168 41.9766 380.598 41.9766C381.027 41.9766 381.242 42.1914 381.242 42.6211V48.4219C381.242 48.7734 381.369 49.0762 381.623 49.3301C381.877 49.584 382.18 49.7109 382.531 49.7109H385.109V42.6211C385.109 42.1914 385.324 41.9766 385.754 41.9766C386.184 41.9766 386.398 42.1914 386.398 42.6211ZM392.266 49.7109C392.695 49.7109 392.91 49.9225 392.91 50.3457C392.91 50.4043 392.689 51.319 392.246 53.0898C392.168 53.4154 391.96 53.5781 391.621 53.5781C391.191 53.5781 390.977 53.3633 390.977 52.9336C390.977 52.6406 391.198 51.7292 391.641 50.1992C391.732 49.8737 391.94 49.7109 392.266 49.7109ZM7.73438 73.6211V81.3555C7.73438 81.7852 7.51953 82 7.08984 82C6.66016 82 6.44531 81.7852 6.44531 81.3555V78.1328H3.86719C3.15755 78.1328 2.54883 77.8854 2.04102 77.3906C1.53971 76.8958 1.28906 76.3001 1.28906 75.6035V73.6211C1.28906 73.1914 1.50391 72.9766 1.93359 72.9766C2.36328 72.9766 2.57812 73.1914 2.57812 73.6211V75.5547C2.57812 75.9062 2.70508 76.209 2.95898 76.4629C3.21289 76.7168 3.51562 76.8438 3.86719 76.8438H6.44531V73.6211C6.44531 73.1914 6.66016 72.9766 7.08984 72.9766C7.51953 72.9766 7.73438 73.1914 7.73438 73.6211ZM12.957 72.9766H18.7578C19.474 72.9766 20.0827 73.2272 20.584 73.7285C21.0853 74.2298 21.3359 74.8385 21.3359 75.5547V81.3555C21.3359 81.7852 21.1211 82 20.6914 82C20.2617 82 20.0469 81.7852 20.0469 81.3555V75.5547C20.0469 75.1901 19.9232 74.8841 19.6758 74.6367C19.4284 74.3893 19.1224 74.2656 18.7578 74.2656H17.4688V81.3555C17.4688 81.7852 17.2539 82 16.8242 82C16.3945 82 16.1797 81.7852 16.1797 81.3555V74.2656H13.6016V81.3555C13.6016 81.7852 13.3867 82 12.957 82C12.5273 82 12.3125 81.7852 12.3125 81.3555V73.6211C12.3125 73.1914 12.5273 72.9766 12.957 72.9766ZM25.9141 78.7773V76.1992C25.9141 75.3073 26.2266 74.5488 26.8516 73.9238C27.4831 73.2923 28.2448 72.9766 29.1367 72.9766C30.0417 72.9766 30.8034 73.2891 31.4219 73.9141C32.0469 74.5326 32.3594 75.2943 32.3594 76.1992V78.7773C32.3594 79.6693 32.0436 80.431 31.4121 81.0625C30.7871 81.6875 30.0286 82 29.1367 82C28.2448 82 27.4831 81.6875 26.8516 81.0625C26.2266 80.431 25.9141 79.6693 25.9141 78.7773ZM31.0703 78.7773V76.1992C31.0703 75.6654 30.8815 75.2096 30.5039 74.832C30.1263 74.4544 29.6706 74.2656 29.1367 74.2656C28.6029 74.2656 28.1471 74.4544 27.7695 74.832C27.3919 75.2096 27.2031 75.6654 27.2031 76.1992V78.7773C27.2031 79.3177 27.3887 79.7767 27.7598 80.1543C28.1374 80.5254 28.5964 80.7109 29.1367 80.7109C29.6706 80.7109 30.1263 80.5221 30.5039 80.1445C30.8815 79.7669 31.0703 79.3112 31.0703 78.7773ZM43.3828 76.1992V78.7773C43.3828 79.6693 43.0671 80.431 42.4355 81.0625C41.8105 81.6875 41.0521 82 40.1602 82C39.2682 82 38.5065 81.6875 37.875 81.0625C37.25 80.431 36.9375 79.6693 36.9375 78.7773V76.1992C36.9375 74.9036 37.4941 73.9531 38.6074 73.3477C39.0697 73.1003 39.4993 72.9766 39.8965 72.9766L37.0645 70.1445C36.9798 70.0599 36.9375 69.9329 36.9375 69.7637C36.9375 69.3275 37.1523 69.1094 37.582 69.1094H42.748C43.1777 69.1094 43.3926 69.3242 43.3926 69.7539C43.3926 70.1836 43.1777 70.3984 42.748 70.3984H39.0859L42.3281 73.8066C43.0312 74.5488 43.3828 75.3464 43.3828 76.1992ZM42.0938 78.7773V76.1992C42.0938 75.6654 41.9049 75.2096 41.5273 74.832C41.1497 74.4544 40.694 74.2656 40.1602 74.2656C39.6263 74.2656 39.1706 74.4544 38.793 74.832C38.4154 75.2096 38.2266 75.6654 38.2266 76.1992V78.7773C38.2266 79.3177 38.4121 79.7767 38.7832 80.1543C39.1608 80.5254 39.6198 80.7109 40.1602 80.7109C40.694 80.7109 41.1497 80.5221 41.5273 80.1445C41.9049 79.7669 42.0938 79.3112 42.0938 78.7773ZM53.1172 79.4219C53.1172 80.1445 52.8665 80.7565 52.3652 81.2578C51.8704 81.7526 51.2617 82 50.5391 82H48.6055C48.1758 82 47.9609 81.7852 47.9609 81.3555V73.6211C47.9609 73.1914 48.1758 72.9766 48.6055 72.9766C49.0352 72.9766 49.25 73.1914 49.25 73.6211V76.8438H50.5391C51.2617 76.8438 51.8704 77.0944 52.3652 77.5957C52.8665 78.0905 53.1172 78.6992 53.1172 79.4219ZM51.8281 79.4219C51.8281 79.0573 51.7044 78.7513 51.457 78.5039C51.2096 78.2565 50.9036 78.1328 50.5391 78.1328H49.25V80.7109H50.5391C50.8971 80.7109 51.1999 80.5872 51.4473 80.3398C51.7012 80.0859 51.8281 79.7799 51.8281 79.4219ZM54.4062 73.6211C54.4062 73.1914 54.6211 72.9766 55.0508 72.9766C55.4805 72.9766 55.6953 73.1914 55.6953 73.6211V81.3555C55.6953 81.7852 55.4805 82 55.0508 82C54.6211 82 54.4062 81.7852 54.4062 81.3555V73.6211ZM71.2969 78.1328V81.3555C71.2969 81.7852 71.082 82 70.6523 82C70.2227 82 70.0078 81.7852 70.0078 81.3555V73.6211C70.0078 73.1914 70.2227 72.9766 70.6523 72.9766C71.082 72.9766 71.2969 73.1914 71.2969 73.6211V76.8438H75.1641V73.6211C75.1641 73.1914 75.3789 72.9766 75.8086 72.9766C76.2383 72.9766 76.4531 73.1914 76.4531 73.6211V81.3555C76.4531 81.7852 76.2383 82 75.8086 82C75.3789 82 75.1641 81.7852 75.1641 81.3555V78.1328H71.2969ZM86.1875 74.2656H83.6094C83.2513 74.2656 82.9453 74.3926 82.6914 74.6465C82.444 74.8939 82.3203 75.1966 82.3203 75.5547V79.4219C82.3203 79.7734 82.4473 80.0762 82.7012 80.3301C82.9551 80.584 83.2578 80.7109 83.6094 80.7109H84.8984C85.2565 80.7109 85.5592 80.5872 85.8066 80.3398C86.0605 80.0859 86.1875 79.7799 86.1875 79.4219V74.2656ZM88.7656 81.3555C88.7656 81.7852 88.5508 82 88.1211 82C87.5221 82 87.0306 81.7721 86.6465 81.3164C86.1712 81.7721 85.5885 82 84.8984 82H83.6094C82.8867 82 82.2747 81.7526 81.7734 81.2578C81.2786 80.7565 81.0312 80.1445 81.0312 79.4219V75.5547C81.0312 74.832 81.2786 74.2233 81.7734 73.7285C82.2747 73.2272 82.8867 72.9766 83.6094 72.9766H86.832C87.2617 72.9766 87.4766 73.1914 87.4766 73.6211V80.0664C87.4766 80.4961 87.6914 80.7109 88.1211 80.7109C88.5508 80.7109 88.7656 80.9258 88.7656 81.3555ZM99.7891 73.6211V81.3555C99.7891 81.7852 99.5742 82 99.1445 82H95.9219C95.1992 82 94.5872 81.7526 94.0859 81.2578C93.5911 80.7565 93.3438 80.1445 93.3438 79.4219V73.6211C93.3438 73.1914 93.5586 72.9766 93.9883 72.9766C94.418 72.9766 94.6328 73.1914 94.6328 73.6211V79.4219C94.6328 79.7734 94.7598 80.0762 95.0137 80.3301C95.2676 80.584 95.5703 80.7109 95.9219 80.7109H98.5V73.6211C98.5 73.1914 98.7148 72.9766 99.1445 72.9766C99.5742 72.9766 99.7891 73.1914 99.7891 73.6211ZM97.8457 70.3984H95.2773C94.8477 70.3984 94.6328 70.1836 94.6328 69.7539C94.6328 69.3242 94.8477 69.1094 95.2773 69.1094H97.8457C98.2754 69.1094 98.4902 69.3242 98.4902 69.7539C98.4902 70.1836 98.2754 70.3984 97.8457 70.3984ZM105.012 72.9766H110.812C111.529 72.9766 112.137 73.2272 112.639 73.7285C113.14 74.2298 113.391 74.8385 113.391 75.5547V81.3555C113.391 81.7852 113.176 82 112.746 82C112.316 82 112.102 81.7852 112.102 81.3555V75.5547C112.102 75.1901 111.978 74.8841 111.73 74.6367C111.483 74.3893 111.177 74.2656 110.812 74.2656H109.523V81.3555C109.523 81.7852 109.309 82 108.879 82C108.449 82 108.234 81.7852 108.234 81.3555V74.2656H105.656V81.3555C105.656 81.7852 105.441 82 105.012 82C104.582 82 104.367 81.7852 104.367 81.3555V73.6211C104.367 73.1914 104.582 72.9766 105.012 72.9766ZM124.414 73.6211V81.3555C124.414 81.7852 124.199 82 123.77 82H120.547C119.824 82 119.212 81.7526 118.711 81.2578C118.216 80.7565 117.969 80.1445 117.969 79.4219V73.6211C117.969 73.1914 118.184 72.9766 118.613 72.9766C119.043 72.9766 119.258 73.1914 119.258 73.6211V79.4219C119.258 79.7734 119.385 80.0762 119.639 80.3301C119.893 80.584 120.195 80.7109 120.547 80.7109H123.125V73.6211C123.125 73.1914 123.34 72.9766 123.77 72.9766C124.199 72.9766 124.414 73.1914 124.414 73.6211ZM138.727 78.7773V76.1992C138.727 75.3073 139.039 74.5488 139.664 73.9238C140.296 73.2923 141.057 72.9766 141.949 72.9766C142.854 72.9766 143.616 73.2891 144.234 73.9141C144.859 74.5326 145.172 75.2943 145.172 76.1992V78.7773C145.172 79.6693 144.856 80.431 144.225 81.0625C143.6 81.6875 142.841 82 141.949 82C141.057 82 140.296 81.6875 139.664 81.0625C139.039 80.431 138.727 79.6693 138.727 78.7773ZM143.883 78.7773V76.1992C143.883 75.6654 143.694 75.2096 143.316 74.832C142.939 74.4544 142.483 74.2656 141.949 74.2656C141.415 74.2656 140.96 74.4544 140.582 74.832C140.204 75.2096 140.016 75.6654 140.016 76.1992V78.7773C140.016 79.3177 140.201 79.7767 140.572 80.1543C140.95 80.5254 141.409 80.7109 141.949 80.7109C142.483 80.7109 142.939 80.5221 143.316 80.1445C143.694 79.7669 143.883 79.3112 143.883 78.7773ZM149.75 81.3555V73.6211C149.75 73.1914 149.965 72.9766 150.395 72.9766H153.617C154.333 72.9766 154.942 73.2272 155.443 73.7285C155.945 74.2298 156.195 74.8385 156.195 75.5547V81.3555C156.195 81.7852 155.98 82 155.551 82C155.121 82 154.906 81.7852 154.906 81.3555V75.5547C154.906 75.1901 154.783 74.8841 154.535 74.6367C154.288 74.3893 153.982 74.2656 153.617 74.2656H151.039V81.3555C151.039 81.7852 150.824 82 150.395 82C149.965 82 149.75 81.7852 149.75 81.3555ZM161.418 72.9766H167.219C167.935 72.9766 168.544 73.2272 169.045 73.7285C169.546 74.2298 169.797 74.8385 169.797 75.5547V81.3555C169.797 81.7852 169.582 82 169.152 82C168.723 82 168.508 81.7852 168.508 81.3555V75.5547C168.508 75.1901 168.384 74.8841 168.137 74.6367C167.889 74.3893 167.583 74.2656 167.219 74.2656H165.93V81.3555C165.93 81.7852 165.715 82 165.285 82C164.855 82 164.641 81.7852 164.641 81.3555V74.2656H162.062V81.3555C162.062 81.7852 161.848 82 161.418 82C160.988 82 160.773 81.7852 160.773 81.3555V73.6211C160.773 73.1914 160.988 72.9766 161.418 72.9766ZM180.82 73.6211V81.3555C180.82 81.7852 180.605 82 180.176 82H176.953C176.23 82 175.618 81.7526 175.117 81.2578C174.622 80.7565 174.375 80.1445 174.375 79.4219V73.6211C174.375 73.1914 174.59 72.9766 175.02 72.9766C175.449 72.9766 175.664 73.1914 175.664 73.6211V79.4219C175.664 79.7734 175.791 80.0762 176.045 80.3301C176.299 80.584 176.602 80.7109 176.953 80.7109H179.531V73.6211C179.531 73.1914 179.746 72.9766 180.176 72.9766C180.605 72.9766 180.82 73.1914 180.82 73.6211ZM189.266 78.7773L186.688 75.4766V81.3555C186.688 81.7852 186.473 82 186.043 82C185.613 82 185.398 81.7852 185.398 81.3555V73.6211C185.398 73.1914 185.613 72.9766 186.043 72.9766C186.258 72.9766 186.473 73.1133 186.688 73.3867L189.266 76.6875L191.844 73.3867C192.059 73.1133 192.273 72.9766 192.488 72.9766C192.918 72.9766 193.133 73.1914 193.133 73.6211V81.3555C193.133 81.7852 192.918 82 192.488 82C192.059 82 191.844 81.7852 191.844 81.3555V75.4766L189.266 78.7773ZM202.867 74.2656H200.289C199.931 74.2656 199.625 74.3926 199.371 74.6465C199.124 74.8939 199 75.1966 199 75.5547V79.4219C199 79.7734 199.127 80.0762 199.381 80.3301C199.635 80.584 199.938 80.7109 200.289 80.7109H201.578C201.936 80.7109 202.239 80.5872 202.486 80.3398C202.74 80.0859 202.867 79.7799 202.867 79.4219V74.2656ZM205.445 81.3555C205.445 81.7852 205.23 82 204.801 82C204.202 82 203.71 81.7721 203.326 81.3164C202.851 81.7721 202.268 82 201.578 82H200.289C199.566 82 198.954 81.7526 198.453 81.2578C197.958 80.7565 197.711 80.1445 197.711 79.4219V75.5547C197.711 74.832 197.958 74.2233 198.453 73.7285C198.954 73.2272 199.566 72.9766 200.289 72.9766H203.512C203.941 72.9766 204.156 73.1914 204.156 73.6211V80.0664C204.156 80.4961 204.371 80.7109 204.801 80.7109C205.23 80.7109 205.445 80.9258 205.445 81.3555ZM213.246 72.9766H215.824C216.254 72.9766 216.469 73.1914 216.469 73.6211V81.3555C216.469 81.7852 216.254 82 215.824 82C215.395 82 215.18 81.7852 215.18 81.3555V74.2656H213.705L211.273 81.5605C211.176 81.8535 210.974 82 210.668 82C210.238 82 210.023 81.7819 210.023 81.3457C210.023 81.2741 210.033 81.209 210.053 81.1504L212.602 73.5039C212.719 73.1523 212.934 72.9766 213.246 72.9766ZM227.492 79.4219C227.492 80.1445 227.242 80.7565 226.74 81.2578C226.245 81.7526 225.637 82 224.914 82H221.691C221.262 82 221.047 81.7852 221.047 81.3555V73.6211C221.047 73.1914 221.262 72.9766 221.691 72.9766C222.121 72.9766 222.336 73.1914 222.336 73.6211V76.8438H224.914C225.637 76.8438 226.245 77.0944 226.74 77.5957C227.242 78.097 227.492 78.7057 227.492 79.4219ZM226.203 79.4219C226.203 79.0573 226.079 78.7513 225.832 78.5039C225.585 78.2565 225.279 78.1328 224.914 78.1328H222.336V80.7109H224.914C225.272 80.7109 225.575 80.5872 225.822 80.3398C226.076 80.0859 226.203 79.7799 226.203 79.4219ZM233.359 78.1328V81.3555C233.359 81.7852 233.145 82 232.715 82C232.285 82 232.07 81.7852 232.07 81.3555V73.6211C232.07 73.1914 232.285 72.9766 232.715 72.9766C233.145 72.9766 233.359 73.1914 233.359 73.6211V76.8438H237.227V73.6211C237.227 73.1914 237.441 72.9766 237.871 72.9766C238.301 72.9766 238.516 73.1914 238.516 73.6211V81.3555C238.516 81.7852 238.301 82 237.871 82C237.441 82 237.227 81.7852 237.227 81.3555V78.1328H233.359ZM243.094 78.7773V76.1992C243.094 75.3073 243.406 74.5488 244.031 73.9238C244.663 73.2923 245.424 72.9766 246.316 72.9766C247.221 72.9766 247.983 73.2891 248.602 73.9141C249.227 74.5326 249.539 75.2943 249.539 76.1992V78.7773C249.539 79.6693 249.223 80.431 248.592 81.0625C247.967 81.6875 247.208 82 246.316 82C245.424 82 244.663 81.6875 244.031 81.0625C243.406 80.431 243.094 79.6693 243.094 78.7773ZM248.25 78.7773V76.1992C248.25 75.6654 248.061 75.2096 247.684 74.832C247.306 74.4544 246.85 74.2656 246.316 74.2656C245.783 74.2656 245.327 74.4544 244.949 74.832C244.572 75.2096 244.383 75.6654 244.383 76.1992V78.7773C244.383 79.3177 244.568 79.7767 244.939 80.1543C245.317 80.5254 245.776 80.7109 246.316 80.7109C246.85 80.7109 247.306 80.5221 247.684 80.1445C248.061 79.7669 248.25 79.3112 248.25 78.7773ZM257.34 74.2656C256.806 74.2656 256.35 74.4544 255.973 74.832C255.595 75.2096 255.406 75.6654 255.406 76.1992V76.8438H259.273V76.1992C259.273 75.6654 259.085 75.2096 258.707 74.832C258.329 74.4544 257.874 74.2656 257.34 74.2656ZM255.406 78.1328V79.4219C255.406 79.7734 255.533 80.0762 255.787 80.3301C256.041 80.584 256.344 80.7109 256.695 80.7109H259.918C260.348 80.7109 260.562 80.9258 260.562 81.3555C260.562 81.7852 260.348 82 259.918 82H256.695C255.973 82 255.361 81.7526 254.859 81.2578C254.365 80.7565 254.117 80.1445 254.117 79.4219V76.1992C254.117 75.3073 254.43 74.5488 255.055 73.9238C255.686 73.2923 256.448 72.9766 257.34 72.9766C258.245 72.9766 259.007 73.2891 259.625 73.9141C260.25 74.5326 260.562 75.2943 260.562 76.1992V78.1328H255.406ZM274.875 73.6211C274.875 73.1914 275.09 72.9766 275.52 72.9766H278.742C279.465 72.9766 280.074 73.2272 280.568 73.7285C281.07 74.2233 281.32 74.832 281.32 75.5547V79.4219C281.32 80.138 281.07 80.7467 280.568 81.248C280.074 81.7493 279.465 82 278.742 82H276.164V85.2227C276.164 85.6523 275.949 85.8672 275.52 85.8672C275.09 85.8672 274.875 85.6523 274.875 85.2227V73.6211ZM276.164 74.2656V80.7109H278.742C279.1 80.7109 279.403 80.5872 279.65 80.3398C279.904 80.0859 280.031 79.7799 280.031 79.4219V75.5547C280.031 75.1901 279.908 74.8841 279.66 74.6367C279.413 74.3893 279.107 74.2656 278.742 74.2656H276.164ZM289.121 74.2656C288.587 74.2656 288.132 74.4544 287.754 74.832C287.376 75.2096 287.188 75.6654 287.188 76.1992V76.8438H291.055V76.1992C291.055 75.6654 290.866 75.2096 290.488 74.832C290.111 74.4544 289.655 74.2656 289.121 74.2656ZM287.188 78.1328V79.4219C287.188 79.7734 287.314 80.0762 287.568 80.3301C287.822 80.584 288.125 80.7109 288.477 80.7109H291.699C292.129 80.7109 292.344 80.9258 292.344 81.3555C292.344 81.7852 292.129 82 291.699 82H288.477C287.754 82 287.142 81.7526 286.641 81.2578C286.146 80.7565 285.898 80.1445 285.898 79.4219V76.1992C285.898 75.3073 286.211 74.5488 286.836 73.9238C287.467 73.2923 288.229 72.9766 289.121 72.9766C290.026 72.9766 290.788 73.2891 291.406 73.9141C292.031 74.5326 292.344 75.2943 292.344 76.1992V78.1328H287.188ZM305.301 82H299.451C298.761 82 298.165 81.7526 297.664 81.2578C297.169 80.7565 296.922 80.1608 296.922 79.4707V73.6211C296.922 73.1914 297.137 72.9766 297.566 72.9766C297.996 72.9766 298.211 73.1914 298.211 73.6211V79.4219C298.211 79.7734 298.338 80.0762 298.592 80.3301C298.846 80.584 299.148 80.7109 299.5 80.7109H300.789V73.6211C300.789 73.1914 301.004 72.9766 301.434 72.9766C301.863 72.9766 302.078 73.1914 302.078 73.6211V80.7109H304.656V73.6211C304.656 73.1914 304.871 72.9766 305.301 72.9766C305.73 72.9766 305.945 73.1914 305.945 73.6211V81.3555C305.945 81.7852 305.73 82 305.301 82ZM313.746 74.2656C313.212 74.2656 312.757 74.4544 312.379 74.832C312.001 75.2096 311.812 75.6654 311.812 76.1992V76.8438H315.68V76.1992C315.68 75.6654 315.491 75.2096 315.113 74.832C314.736 74.4544 314.28 74.2656 313.746 74.2656ZM311.812 78.1328V79.4219C311.812 79.7734 311.939 80.0762 312.193 80.3301C312.447 80.584 312.75 80.7109 313.102 80.7109H316.324C316.754 80.7109 316.969 80.9258 316.969 81.3555C316.969 81.7852 316.754 82 316.324 82H313.102C312.379 82 311.767 81.7526 311.266 81.2578C310.771 80.7565 310.523 80.1445 310.523 79.4219V76.1992C310.523 75.3073 310.836 74.5488 311.461 73.9238C312.092 73.2923 312.854 72.9766 313.746 72.9766C314.651 72.9766 315.413 73.2891 316.031 73.9141C316.656 74.5326 316.969 75.2943 316.969 76.1992V78.1328H311.812ZM322.836 78.1328V81.3555C322.836 81.7852 322.621 82 322.191 82C321.762 82 321.547 81.7852 321.547 81.3555V73.6211C321.547 73.1914 321.762 72.9766 322.191 72.9766C322.621 72.9766 322.836 73.1914 322.836 73.6211V76.8438H326.703V73.6211C326.703 73.1914 326.918 72.9766 327.348 72.9766C327.777 72.9766 327.992 73.1914 327.992 73.6211V81.3555C327.992 81.7852 327.777 82 327.348 82C326.918 82 326.703 81.7852 326.703 81.3555V78.1328H322.836ZM339.016 73.6211V81.3555C339.016 81.7852 338.801 82 338.371 82H335.148C334.426 82 333.814 81.7526 333.312 81.2578C332.818 80.7565 332.57 80.1445 332.57 79.4219V73.6211C332.57 73.1914 332.785 72.9766 333.215 72.9766C333.645 72.9766 333.859 73.1914 333.859 73.6211V79.4219C333.859 79.7734 333.986 80.0762 334.24 80.3301C334.494 80.584 334.797 80.7109 335.148 80.7109H337.727V73.6211C337.727 73.1914 337.941 72.9766 338.371 72.9766C338.801 72.9766 339.016 73.1914 339.016 73.6211ZM346.816 74.2656C346.283 74.2656 345.827 74.4544 345.449 74.832C345.072 75.2096 344.883 75.6654 344.883 76.1992V76.8438H348.75V76.1992C348.75 75.6654 348.561 75.2096 348.184 74.832C347.806 74.4544 347.35 74.2656 346.816 74.2656ZM344.883 78.1328V79.4219C344.883 79.7734 345.01 80.0762 345.264 80.3301C345.518 80.584 345.82 80.7109 346.172 80.7109H349.395C349.824 80.7109 350.039 80.9258 350.039 81.3555C350.039 81.7852 349.824 82 349.395 82H346.172C345.449 82 344.837 81.7526 344.336 81.2578C343.841 80.7565 343.594 80.1445 343.594 79.4219V76.1992C343.594 75.3073 343.906 74.5488 344.531 73.9238C345.163 73.2923 345.924 72.9766 346.816 72.9766C347.721 72.9766 348.483 73.2891 349.102 73.9141C349.727 74.5326 350.039 75.2943 350.039 76.1992V78.1328H344.883ZM354.617 80.7109C354.617 80.2812 354.832 80.0664 355.262 80.0664C355.691 80.0664 355.906 80.2812 355.906 80.7109V81.3555C355.906 81.7852 355.691 82 355.262 82C354.832 82 354.617 81.7852 354.617 81.3555V80.7109Z" fill="white"/>
<rect y="14" width="66" height="1" fill="#D9D9D9"/>
</svg>
